<?xml version="1.0" encoding="UTF-8" standalone="no"?>
<!-- Created with Inkscape (http://www.inkscape.org/) -->

<svg
   xmlns:dc="http://purl.org/dc/elements/1.1/"
   xmlns:cc="http://creativecommons.org/ns#"
   xmlns:rdf="http://www.w3.org/1999/02/22-rdf-syntax-ns#"
   xmlns:svg="http://www.w3.org/2000/svg"
   xmlns="http://www.w3.org/2000/svg"
   version="1.1"
   width="1052.3622"
   height="744.09448"
   id="plan">
  <defs
     id="defs4" />
  <metadata
     id="metadata7">
    <rdf:RDF>
      <cc:Work
         rdf:about="">
        <dc:format>image/svg+xml</dc:format>
        <dc:type
           rdf:resource="http://purl.org/dc/dcmitype/StillImage" />
        <dc:title></dc:title>
      </cc:Work>
    </rdf:RDF>
  </metadata>
  <g
     transform="translate(517.26277,-682.83729)"
     id="layer1">
    <path
       d="m -358.72598,824.06771 76.26651,-38.3858 -5.05076,-9.09137 12.12183,-6.06092 3.53553,8.08122 24.24367,-10.6066 -6.06092,-10.6066 12.12183,-5.05076 4.54569,8.08122 76.26651,-39.90103 5.55584,11.11168 -2.0203,4.04061 7.07107,15.15229 6.06091,2.0203 1.01015,6.06092 -1.01015,4.04061 6.06092,15.65736 5.05076,1.01016 2.0203,7.07106 -1.01015,3.03046 7.07107,16.16244 6.06092,1.51523 5.05076,12.12183 -9.09137,5.05076 3.03045,8.08122 -1.01015,5.05077 7.07107,16.16244 7.07107,3.03045 7.07106,14.64722 -1.51523,3.03045 1.51523,4.54569 -2.0203,4.04061 6.56599,13.13198 5.05076,2.02031 3.030461,5.55584 -2.020301,5.05076 7.071063,16.16244 5.050763,1.01015 3.535534,7.07107 -2.020305,4.54569 7.071068,13.63706 4.04061,2.0203 6.060915,13.13199 -70.710678,33.33503 3.03046,8.58625 -2.02031,2.0204 9.09138,21.7182 5.05076,0 10.10152,22.7285 -3.03045,2.0203 10.10152,22.7284 5.05076,0 9.596453,23.7386 -2.020305,2.0203 10.101526,21.2132 4.04061,0 4.545686,13.132 4.04061,0 -1.010152,5.0507 22.223356,7.0711 1.010152,-3.0304 3.030458,0 18.182746,0 1.010152,3.0304 24.2436615,1.0102 0,-5.0508 18.1827455,0 5.050763,4.0406 21.213204,-7.5761 0,-3.7881 9.091373,-13.8896 c 0,0 2.777919,-0.5051 3.788072,-0.5051 1.010152,0 10.101525,-21.7183 10.101525,-21.7183 l -3.535534,-2.0203 11.111678,-24.4962 4.04061,0 10.354064,-20.7081 -3.535534,-2.7779 9.84899,-21.4658 5.05076,0 9.09137,-22.2233 -2.52538,-3.5355 4.04061,-8.58634 -74.498749,-33.58757 5.808378,-12.37437 4.798224,-0.75762 7.576144,-16.41497 -3.030457,-3.03046 4.545686,-8.83884 4.04061,0 7.323606,-14.89975 -3.535534,-4.54568 3.030458,-8.08122 5.303301,0 7.323606,-16.16244 -3.030458,-5.30331 8.586297,-21.97081 6.060915,0 7.071063,-18.18275 -3.03045,-6.56599 3.78807,-8.08122 -8.333759,-4.04061 5.303299,-12.12183 4.54569,0 7.3236,-16.41498 -3.53553,-5.80838 3.53553,-6.56599 5.80838,-0.50508 6.31345,-15.15228 -3.03045,-5.80838 3.53553,-8.33376 6.81853,1.01015 6.06092,-15.40482 -3.53554,-6.06092 5.55584,-10.6066 66.67007,30.80965 11.11168,-19.69797 3.53553,3.03046 -8.08122,19.19289 17.67767,9.09138 -2.27284,8.83883 27.27412,11.86929 4.04061,-5.05076 87.12565,42.93148 -6.07967,12.743 -6.07143,1.96428 -5.53571,14.28572 3.75,5 -3.39286,8.57142 -5,0.71429 -6.42857,12.32143 3.57143,4.64286 -4.28572,9.10714 -5.35714,0.35714 -5.89286,14.28572 2.67857,4.82142 -4.82143,9.82143 -11.25,-3.03571 -2.67857,5.89286 -5.89285,1.07142 -5.71429,13.75 6.07143,11.25 -6.07143,11.42858 -7.85714,-1.60715 -4.46429,11.07143 4.82143,6.25 -8.39286,1.07143 -4.46428,10.53571 4.64285,5 -8.03571,0.71429 -3.92857,12.32143 4.10714,6.25003 -8.21428,-0.3572 -4.10715,11.7857 4.64286,7.3215 -8.75,-0.3572 -4.46429,11.4286 4.28572,7.8571 -9.28572,-0.3571 -3.57142,10 4.28571,7.3214 -7.85714,-0.7143 -3.92857,12.1429 3.92857,6.7857 -9.10715,2.1429 -3.57142,7.3214 4.28571,9.2857 -4.10714,7.8572 -11.25,0.3571 -5.89286,14.2857 2.5,5.7143 -4.28571,7.1429 -4.64286,0 -7.5,15 3.39286,4.4642 -5,8.2143 -4.64286,-0.3571 -6.60714,15.5357 3.21428,2.8571 -1.78571,8.0358 5.17857,2.6785 -7.67857,18.9286 -5.89286,-1.25 -6.96429,17.3214 4.28572,4.4643 -7.32143,15.3572 -6.42857,0 -0.35714,21.4285 -4.64286,4.1072 1.07143,31.0714 3.03571,2.3214 0,13.0357 3.57143,2.1429 1.25,10 -15.17857,3.5714 -4.64286,-5.3571 -18.21428,8.0357 -1.42858,9.6429 -8.92857,-5 -18.392854,8.9285 0.535714,6.25 -8.571428,10.7143 -15.535715,-7.6786 -0.714285,-7.6785 -28.392858,0.5357 -0.714285,8.5714 -10.535715,9.2857 -9.6428569,-10 -0.3571428,-7.5 -28.0357143,1.0715 0,7.8571 -10.178572,7.6786 -11.25,-8.2143 -0.357142,-8.75 -28.392858,0 -0.714285,8.5714 -16.428572,6.4286 -9.107141,-12.3214 2.5,-7.6786 -16.96429,-10.1786 -4.28571,6.0714 -6.78572,2.8572 -1.25,-10 -16.96428,-10.7143 -6.07143,7.3214 -13.92857,-3.0357 5.35714,-15.3571 -0.17857,-10.1786 3.03571,-2.5 0.35715,-31.9643 -4.28572,-1.0714 -0.17857,-22.5 -6.25,0.5357 -6.42857,-17.5 4.46429,-4.6429 -6.78572,-15.3571 -6.42857,0 -8.03571,-16.9643 6.07142,-3.75 -1.07142,-9.2857 2.67857,-3.75 -6.78572,-14.1071 -5.71428,0.7142 -4.46429,-6.25 4.64286,-6.7857 -6.96429,-14.1071 -6.78571,0.3571 -3.92857,-8.0357 4.46428,-6.25 -5.71428,-13.2143 -6.07143,0.1786 -9.64286,-18.0357 3.92857,-5.8929 -6.96428,-15 -6.42857,-0.3571 -3.21429,-7.6786 4.10714,-4.1071 -5.53571,-13.5715 -6.42857,0 -4.82143,-8.2142 3.92857,-6.6072 -6.25,-13.2143 -6.42857,0.3572 -8.03572,-18.21432 3.03572,-5.89285 -7.32143,-13.39286 -5.89286,-0.53572 -3.75,-7.85714 3.92857,-4.64286 -5.71428,-13.39285 -6.42857,-1.07143 -3.92857,-7.5 3.75,-5 -6.07143,-12.67857 -4.28572,0.17857 -3.21428,-6.78572 -10,4.28572 -8.03572,-13.21429 5.17857,-4.28571 -6.78571,-13.92857 -6.60714,1.07143 -4.46429,-8.39286 5.17857,-6.07143 -6.78571,-13.21429 -7.14286,0.71429 -3.21429,-8.21429 4.28572,-6.25 -6.60714,-13.21428 -6.07143,2.14286 z"
       id="walls"
       class="walls" />
    <path
       d="m -271.34779,786.18699 29.29442,-15.15229 44.95179,91.92387 69.95307,-34.97653 19.19289,38.13325 -71.97337,34.724 111.621863,239.91121 35.355339,14.1422 56.568542,-2.0203 35.355339,-12.1219 107.076167,-239.40612 -72.225903,-35.86042 20.203043,-39.90103 72.73099,29.29443 43.43656,-98.48987 36.36549,19.1929 -173.746236,381.83761 78.286826,36.8706 -22.22336,43.4366 -76.771594,-36.3655 -154.048263,-1.0102 -73.741133,36.3655 -20.70813,-45.4568 74.75129,-34.8503 z"
       id="hall"
       class="hall" />
    <path
       d="m -276.90363,790.73267 28.28427,58.08377 11.61676,-7.07106 -6.06092,18.18274 6.06092,15.15229 -71.72083,38.89087 -41.92133,-86.36804 z"
       id="sala_19"
       class="classroom">
      <title
         id="title3141">19</title>
    </path>
    <path
       d="m -163.26147,728.10322 40.91118,88.38834 -74.75129,37.88072 -40.91118,-86.87312 z"
       id="sala_20"
       class="classroom">
      <title
         id="title3143">20</title>
    </path>
    <path
       d="m -234.9823,881.6464 40.4061,83.84266 -62.12438,33.84011 -40.4061,-86.87311 z"
       id="sala_18"
       class="classroom">
      <title
         id="title3139">18</title>
    </path>
    <path
       d="m -147.6041,1064.9891 39.90102,88.3883 -63.63961,30.3046 -40.4061,-86.8731 8.5863,-5.0508 -2.02031,-7.071 -8.58629,6.566 -40.40611,-88.3884 64.14469,-29.79949 40.91118,86.87309 -12.12183,7.0711 3.03046,4.0406 z"
       id="path3083"
       class="classroom" />
    <path
       d="m -145.85714,1240.2193 -1.42857,78.5715 67.142853,34.2857 152.142857,0 67.85714,-33.5715 -1.42857,-75.7142 -66.42857,-35 -20,0 0,-20.7143 -11.428571,12.8571 -1.428572,8.5714 -33.5714284,0 1.4285714,-20 -12.142857,12.8572 -13.571429,-12.1429 1.428572,20 -32.142857,-1.4285 0,-10 -14.285715,-8.5715 1.428572,17.1429 -18.571429,0.7143 z"
       id="path3085"
       class="classroom" />
    <path
       d="m -107.28571,873.79075 41.428567,88.57143 -65.714287,32.85715 -40,-89.28572 z"
       id="sala_21"
       class="classroom">
      <title
         id="title3145">21</title>
    </path>
    <path
       d="m 139.85714,1067.3622 65.71429,28.5714 -41.42857,88.5714 -66.428574,-30.7142 z"
       id="path3089"
       class="classroom" />
    <path
       d="M 277,944.50504 210.57143,1093.7908 142,1060.9336 209.14286,910.93361 z"
       id="path3091"
       class="classroom" />
    <path
       d="m 227,873.79075 63.57143,32.14286 -14.28572,32.85714 -65.79073,-31.89053 z"
       id="path3093"
       class="classroom" />
    <path
       d="m 93.31728,872.55503 67.17514,31.31473 -39.39595,88.89342 -69.700521,-30.80965 z"
       id="path3095"
       class="classroom" />
    <path
       d="m 102.91373,813.46111 81.31728,36.36549 41.41625,-89.3985 -80.30712,-38.89088 z"
       id="path3097"
       class="classroom" />
    <path
       d="m 227.16249,870.02965 77.27667,37.37564 39.39595,-89.90357 -77.27667,-36.3655 z"
       id="path3099"
       class="classroom" />
  </g>
</svg>
